<svg xmlns="http://www.w3.org/2000/svg" viewBox="0 0 102 64"><defs><style>.cls-1{fill:#0043e1;}.cls-2{fill:#01257b;}.cls-3{fill:#06f;}</style></defs><g id="Layer_2" data-name="Layer 2"><g id="Layer_1-2" data-name="Layer 1"><rect class="cls-1" x="22.95" y="24.43" width="25.41" height="22.47" transform="translate(-14.77 35.65) rotate(-45)"/><path class="cls-2" d="M102,43.52v7.65a12.75,12.75,0,1,1-25.5,0V43.66l1.27-1.27,5.5-5.51C92.74,27.72,102,21.46,102,43.52Z"/><rect class="cls-2" x="76.5" y="17.4" width="25.5" height="28.84"/><path class="cls-3" d="M102,12.75V43.52c0-22.06-9.26-15.8-18.73-6.64l-5.5,5.51L76.5,43.66,60,60.25a12.75,12.75,0,0,1-18,0L25.5,43.66c7,7,22-7.08,25-10l.52-.53h0L80.24,3.75a12.7,12.7,0,0,1,18,0,12.57,12.57,0,0,1,3.07,5l.1.3.09.3c0,.11,0,.21.08.31s.1.41.14.62l.06.31c0,.22.07.43.1.64l0,.32c0,.06,0,.12,0,.18s0,.12,0,.18,0,.19,0,.29h0A5.43,5.43,0,0,1,102,12.75Z"/><path class="cls-2" d="M25.5,43.66V51.2A12.75,12.75,0,1,1,0,51.2V43.52c0-22.06,9.26-15.8,18.73-6.64l5.5,5.51Z"/><rect class="cls-2" y="17.4" width="25.5" height="28.84"/><path class="cls-1" d="M51,33.07h0l-.52.53c-3,3-18,17-25,10l-1.27-1.27-5.5-5.51C9.26,27.72,0,21.46,0,43.52V12.74a4.35,4.35,0,0,1,0-.51v-.12c0-.11,0-.22,0-.33a12.72,12.72,0,0,1,3.7-8,12.7,12.7,0,0,1,18,0Z"/></g></g></svg>